<?xml version="1.0" encoding="UTF-8" standalone="no"?>
<!DOCTYPE svg PUBLIC "-//W3C//DTD SVG 1.1//EN" "http://www.w3.org/Graphics/SVG/1.1/DTD/svg11.dtd">
<svg viewBox="0 0 1000 1000" version="1.1" xmlns="http://www.w3.org/2000/svg" xmlns:xlink="http://www.w3.org/1999/xlink">
	<g id="AngryDictator" stroke-linejoin="round" stroke-miterlimit="1.5" stroke-width="4">
		<title>Angry Dictator, by Adam Stanislav</title>
		<circle id="Hlava" cx="500" cy="509" r="396.5" fill="#ffcbac" stroke="#600000"/>
		<g id="Eyes">
			<g id="Eye">
				<path d="m510 587c8.873-7.914 13.544-16.891 13.544-26.029 0-28.731-45.297-52.058-101.09-52.058-55.793 0-101.09 23.327-101.09 52.058 0 9.138 4.671 18.115 13.544 26.029z" fill="#ebebeb" stroke="#000"/>
				<path d="m464 587c3.48-6.028 5.312-12.865 5.312-19.825 0-21.883-17.766-39.649-39.649-39.649-21.882 0-39.648 17.766-39.648 39.649 0 6.96 1.832 13.797 5.311 19.825z" fill="#784200" stroke="#000"/>
				<circle cx="445" cy="565" r="18"/>
			</g>
			<use xlink:href="#Eye" transform="translate(300)"/>
		</g>
		<circle id="Nose" cx="573" cy="663" r="33" fill="#eab497" stroke="#780000"/>
		<path id="Mouth" d="m650 800c7.809-7.27 11.921-15.516 11.921-23.91 0-26.393-39.872-47.821-88.983-47.821-49.111 0-88.983 21.428-88.983 47.821 0 8.394 4.112 16.64 11.921 23.91z" fill="#e12239" stroke="#000"/>
		<path id="Goatee" d="m679 872c0-18.542-15.054-33.596-33.596-33.596h-145.278c-18.542 0-33.596 15.054-33.596 33.596v67.191c0 18.542 15.054 33.595 33.596 33.595h145.278c18.542 0 33.596-15.053 33.596-33.595z" fill="#ad421f"/>
		<g id="Ear">
			<path d="m148 417c-7.638-10.081-16.302-15.388-25.121-15.388-27.73 0-50.242 51.467-50.242 114.86 0 63.394 22.512 114.861 50.242 114.861 8.819 0 17.483-5.307 25.121-15.388z" fill="#eab497" stroke="#700"/>
			<path d="m131 435c-4.509-6.255-9.624-9.549-14.83-9.549-16.371 0-29.661 31.938-29.661 71.277 0 39.339 13.29 71.278 29.661 71.278 5.206 0 10.321-3.294 14.83-9.55z"  fill="#fae0f4" stroke="#700"/>
			<circle id="Earring" cx="120" cy="607" r="12" fill="#faf21f" stroke="#600000"/>
		</g>
		<g id="Hat" stroke="#b60000" stroke-width="8">
			<path d="m62 146c0 153.013 196.241 277.24 437.954 277.24 241.713 0 437.954-124.227 437.954-277.24-102.189 45.904-263.251 83.172-437.954 83.172-174.703 0-335.765-37.268-437.954-83.172z"/>
			<path d="m221 198c82.85 19.207 178.81 31.533 279.282 31.533 101.765 0 198.901-12.645 282.48-32.28 1.344-5.963 2.024-11.983 2.024-18.027 0-83.356-126.804-151.029-282.991-151.029-156.186 0-282.99 67.673-282.99 151.029 0 6.296 0.738 12.566 2.195 18.774z"/>
		</g>
	</g>
</svg>
